# xmcd
# Copyright (C) 1995-1998 Ti Kan
#
# Track frame offsets:
#       150
#       17968
#       33668
#       50157
#       64576
#       80818
#       96019
#       121975
#       138373
#       157308
#       182554
#
# Disc length: 2711 seconds
#
# Revision: 0
# Processed by: cddbd v1.5.2PL0 Copyright (c) Steve Scherf et al.
# Submitted via: CD-Import v1.0
#
DISCID=9c0a950b
DTITLE=Keane - 
DYEAR=1900
DGENRE=
TTITLE0=Somewhere Only We Know
TTITLE1=This Is The Last Time
TTITLE2=Bend And Break
TTITLE3=We Might As Well Be Strangers
TTITLE4=Everybody's Changing
TTITLE5=Your Eyes Open
TTITLE6=She Has No Time
TTITLE7=Can't Stop Now
TTITLE8=Sunshine
TTITLE9=Untitled 1
TTITLE10=Bedshaped
EXTD=
EXTT0=
EXTT1=
EXTT2=
EXTT3=
EXTT4=
EXTT5=
EXTT6=
EXTT7=
EXTT8=
EXTT9=
EXTT10=
PLAYORDER=
